<mxfile host="app.diagrams.net" agent="Mozilla/5.0 (Macintosh; Intel Mac OS X 10_15_7) AppleWebKit/537.36 (KHTML, like Gecko) Chrome/127.0.0.0 Safari/537.36" version="24.7.7">
  <diagram name="第 1 页" id="T7PcoM_MgdRfvvcAyjk_">
    <mxGraphModel dx="594" dy="1626" grid="1" gridSize="10" guides="1" tooltips="1" connect="1" arrows="1" fold="1" page="1" pageScale="1" pageWidth="827" pageHeight="1169" math="0" shadow="0">
      <root>
        <mxCell id="0" />
        <mxCell id="1" parent="0" />
        <mxCell id="JKyW5L-kr9WDCowvPRAZ-1" value="VPC-1" style="points=[[0,0],[0.25,0],[0.5,0],[0.75,0],[1,0],[1,0.25],[1,0.5],[1,0.75],[1,1],[0.75,1],[0.5,1],[0.25,1],[0,1],[0,0.75],[0,0.5],[0,0.25]];outlineConnect=0;gradientColor=none;html=1;whiteSpace=wrap;fontSize=12;fontStyle=0;container=1;pointerEvents=0;collapsible=0;recursiveResize=0;shape=mxgraph.aws4.group;grIcon=mxgraph.aws4.group_vpc2;strokeColor=#8C4FFF;fillColor=none;verticalAlign=top;align=left;spacingLeft=30;fontColor=#AAB7B8;dashed=0;" vertex="1" parent="1">
          <mxGeometry x="40" y="240" width="130" height="130" as="geometry" />
        </mxCell>
        <mxCell id="JKyW5L-kr9WDCowvPRAZ-2" value="VPC-2" style="points=[[0,0],[0.25,0],[0.5,0],[0.75,0],[1,0],[1,0.25],[1,0.5],[1,0.75],[1,1],[0.75,1],[0.5,1],[0.25,1],[0,1],[0,0.75],[0,0.5],[0,0.25]];outlineConnect=0;gradientColor=none;html=1;whiteSpace=wrap;fontSize=12;fontStyle=0;container=1;pointerEvents=0;collapsible=0;recursiveResize=0;shape=mxgraph.aws4.group;grIcon=mxgraph.aws4.group_vpc2;strokeColor=#8C4FFF;fillColor=none;verticalAlign=top;align=left;spacingLeft=30;fontColor=#AAB7B8;dashed=0;" vertex="1" parent="1">
          <mxGeometry x="40" y="390" width="130" height="130" as="geometry" />
        </mxCell>
        <mxCell id="JKyW5L-kr9WDCowvPRAZ-3" value="VPC-N" style="points=[[0,0],[0.25,0],[0.5,0],[0.75,0],[1,0],[1,0.25],[1,0.5],[1,0.75],[1,1],[0.75,1],[0.5,1],[0.25,1],[0,1],[0,0.75],[0,0.5],[0,0.25]];outlineConnect=0;gradientColor=none;html=1;whiteSpace=wrap;fontSize=12;fontStyle=0;container=1;pointerEvents=0;collapsible=0;recursiveResize=0;shape=mxgraph.aws4.group;grIcon=mxgraph.aws4.group_vpc2;strokeColor=#8C4FFF;fillColor=none;verticalAlign=top;align=left;spacingLeft=30;fontColor=#AAB7B8;dashed=0;" vertex="1" parent="1">
          <mxGeometry x="40" y="540" width="130" height="130" as="geometry" />
        </mxCell>
        <mxCell id="JKyW5L-kr9WDCowvPRAZ-4" style="edgeStyle=orthogonalEdgeStyle;rounded=0;orthogonalLoop=1;jettySize=auto;html=1;shape=link;dashed=1;" edge="1" parent="1" source="JKyW5L-kr9WDCowvPRAZ-22" target="JKyW5L-kr9WDCowvPRAZ-10">
          <mxGeometry relative="1" as="geometry" />
        </mxCell>
        <mxCell id="JKyW5L-kr9WDCowvPRAZ-5" style="rounded=0;orthogonalLoop=1;jettySize=auto;html=1;entryX=1;entryY=0.5;entryDx=0;entryDy=0;shape=link;dashed=1;" edge="1" parent="1" source="JKyW5L-kr9WDCowvPRAZ-16" target="JKyW5L-kr9WDCowvPRAZ-1">
          <mxGeometry relative="1" as="geometry" />
        </mxCell>
        <mxCell id="JKyW5L-kr9WDCowvPRAZ-6" style="rounded=0;orthogonalLoop=1;jettySize=auto;html=1;entryX=1;entryY=0.5;entryDx=0;entryDy=0;shape=link;dashed=1;" edge="1" parent="1" source="JKyW5L-kr9WDCowvPRAZ-18" target="JKyW5L-kr9WDCowvPRAZ-2">
          <mxGeometry relative="1" as="geometry" />
        </mxCell>
        <mxCell id="JKyW5L-kr9WDCowvPRAZ-7" style="rounded=0;orthogonalLoop=1;jettySize=auto;html=1;entryX=1;entryY=0.5;entryDx=0;entryDy=0;shape=link;dashed=1;" edge="1" parent="1" source="JKyW5L-kr9WDCowvPRAZ-20" target="JKyW5L-kr9WDCowvPRAZ-3">
          <mxGeometry relative="1" as="geometry" />
        </mxCell>
        <mxCell id="JKyW5L-kr9WDCowvPRAZ-8" value="Transit Gateway" style="sketch=0;points=[[0,0,0],[0.25,0,0],[0.5,0,0],[0.75,0,0],[1,0,0],[0,1,0],[0.25,1,0],[0.5,1,0],[0.75,1,0],[1,1,0],[0,0.25,0],[0,0.5,0],[0,0.75,0],[1,0.25,0],[1,0.5,0],[1,0.75,0]];outlineConnect=0;fontColor=#232F3E;fillColor=#8C4FFF;strokeColor=#ffffff;dashed=0;verticalLabelPosition=bottom;verticalAlign=top;align=center;html=1;fontSize=12;fontStyle=0;aspect=fixed;shape=mxgraph.aws4.resourceIcon;resIcon=mxgraph.aws4.transit_gateway;" vertex="1" parent="1">
          <mxGeometry x="310" y="416" width="78" height="78" as="geometry" />
        </mxCell>
        <mxCell id="JKyW5L-kr9WDCowvPRAZ-9" style="edgeStyle=orthogonalEdgeStyle;rounded=0;orthogonalLoop=1;jettySize=auto;html=1;shape=link;dashed=1;" edge="1" parent="1" source="JKyW5L-kr9WDCowvPRAZ-31" target="JKyW5L-kr9WDCowvPRAZ-29">
          <mxGeometry relative="1" as="geometry" />
        </mxCell>
        <mxCell id="JKyW5L-kr9WDCowvPRAZ-10" value="Site-to-Site VPN" style="sketch=0;points=[[0,0,0],[0.25,0,0],[0.5,0,0],[0.75,0,0],[1,0,0],[0,1,0],[0.25,1,0],[0.5,1,0],[0.75,1,0],[1,1,0],[0,0.25,0],[0,0.5,0],[0,0.75,0],[1,0.25,0],[1,0.5,0],[1,0.75,0]];outlineConnect=0;fontColor=#232F3E;fillColor=#8C4FFF;strokeColor=#ffffff;dashed=0;verticalLabelPosition=middle;verticalAlign=middle;align=left;html=1;fontSize=12;fontStyle=0;aspect=fixed;shape=mxgraph.aws4.resourceIcon;resIcon=mxgraph.aws4.site_to_site_vpn;labelPosition=right;" vertex="1" parent="1">
          <mxGeometry x="325" y="292" width="48" height="48" as="geometry" />
        </mxCell>
        <mxCell id="JKyW5L-kr9WDCowvPRAZ-11" value="金风IDC" style="sketch=0;outlineConnect=0;gradientColor=none;html=1;whiteSpace=wrap;fontSize=12;fontStyle=0;shape=mxgraph.aws4.group;grIcon=mxgraph.aws4.group_on_premise;strokeColor=#AAB7B8;fillColor=none;verticalAlign=top;align=left;spacingLeft=30;fontColor=#AAB7B8;dashed=0;" vertex="1" parent="1">
          <mxGeometry x="660" y="390" width="130" height="130" as="geometry" />
        </mxCell>
        <mxCell id="JKyW5L-kr9WDCowvPRAZ-12" value="" style="edgeStyle=orthogonalEdgeStyle;rounded=0;orthogonalLoop=1;jettySize=auto;html=1;shape=link;dashed=1;" edge="1" parent="1" source="JKyW5L-kr9WDCowvPRAZ-26" target="JKyW5L-kr9WDCowvPRAZ-11">
          <mxGeometry relative="1" as="geometry">
            <mxPoint as="offset" />
          </mxGeometry>
        </mxCell>
        <mxCell id="JKyW5L-kr9WDCowvPRAZ-13" value="Direct Connect Gateway" style="sketch=0;points=[[0,0,0],[0.25,0,0],[0.5,0,0],[0.75,0,0],[1,0,0],[0,1,0],[0.25,1,0],[0.5,1,0],[0.75,1,0],[1,1,0],[0,0.25,0],[0,0.5,0],[0,0.75,0],[1,0.25,0],[1,0.5,0],[1,0.75,0]];outlineConnect=0;fontColor=#232F3E;fillColor=#8C4FFF;strokeColor=#ffffff;dashed=0;verticalLabelPosition=bottom;verticalAlign=top;align=center;html=1;fontSize=12;fontStyle=0;aspect=fixed;shape=mxgraph.aws4.resourceIcon;resIcon=mxgraph.aws4.direct_connect;" vertex="1" parent="1">
          <mxGeometry x="470" y="416" width="78" height="78" as="geometry" />
        </mxCell>
        <mxCell id="JKyW5L-kr9WDCowvPRAZ-14" style="rounded=0;orthogonalLoop=1;jettySize=auto;html=1;exitX=1;exitY=0.5;exitDx=0;exitDy=0;exitPerimeter=0;entryX=0;entryY=0.5;entryDx=0;entryDy=0;entryPerimeter=0;shape=link;dashed=1;" edge="1" parent="1" source="JKyW5L-kr9WDCowvPRAZ-24" target="JKyW5L-kr9WDCowvPRAZ-13">
          <mxGeometry relative="1" as="geometry" />
        </mxCell>
        <mxCell id="JKyW5L-kr9WDCowvPRAZ-15" value="" style="rounded=0;orthogonalLoop=1;jettySize=auto;html=1;entryX=1;entryY=0.5;entryDx=0;entryDy=0;shape=link;dashed=1;" edge="1" parent="1" source="JKyW5L-kr9WDCowvPRAZ-8" target="JKyW5L-kr9WDCowvPRAZ-16">
          <mxGeometry relative="1" as="geometry">
            <mxPoint x="310" y="422" as="sourcePoint" />
            <mxPoint x="170" y="305" as="targetPoint" />
          </mxGeometry>
        </mxCell>
        <mxCell id="JKyW5L-kr9WDCowvPRAZ-16" value="" style="sketch=0;outlineConnect=0;fontColor=#232F3E;gradientColor=none;fillColor=#8C4FFF;strokeColor=none;dashed=0;verticalLabelPosition=bottom;verticalAlign=top;align=center;html=1;fontSize=12;fontStyle=0;aspect=fixed;pointerEvents=1;shape=mxgraph.aws4.transit_gateway_attachment;" vertex="1" parent="1">
          <mxGeometry x="230" y="350" width="30" height="30" as="geometry" />
        </mxCell>
        <mxCell id="JKyW5L-kr9WDCowvPRAZ-17" value="" style="rounded=0;orthogonalLoop=1;jettySize=auto;html=1;entryX=1;entryY=0.5;entryDx=0;entryDy=0;shape=link;dashed=1;" edge="1" parent="1" source="JKyW5L-kr9WDCowvPRAZ-8" target="JKyW5L-kr9WDCowvPRAZ-18">
          <mxGeometry relative="1" as="geometry">
            <mxPoint x="310" y="455" as="sourcePoint" />
            <mxPoint x="170" y="455" as="targetPoint" />
          </mxGeometry>
        </mxCell>
        <mxCell id="JKyW5L-kr9WDCowvPRAZ-18" value="" style="sketch=0;outlineConnect=0;fontColor=#232F3E;gradientColor=none;fillColor=#8C4FFF;strokeColor=none;dashed=0;verticalLabelPosition=bottom;verticalAlign=top;align=center;html=1;fontSize=12;fontStyle=0;aspect=fixed;pointerEvents=1;shape=mxgraph.aws4.transit_gateway_attachment;" vertex="1" parent="1">
          <mxGeometry x="230" y="440" width="30" height="30" as="geometry" />
        </mxCell>
        <mxCell id="JKyW5L-kr9WDCowvPRAZ-19" value="" style="rounded=0;orthogonalLoop=1;jettySize=auto;html=1;entryX=1;entryY=0.5;entryDx=0;entryDy=0;shape=link;dashed=1;" edge="1" parent="1" source="JKyW5L-kr9WDCowvPRAZ-8" target="JKyW5L-kr9WDCowvPRAZ-20">
          <mxGeometry relative="1" as="geometry">
            <mxPoint x="310" y="488" as="sourcePoint" />
            <mxPoint x="170" y="605" as="targetPoint" />
          </mxGeometry>
        </mxCell>
        <mxCell id="JKyW5L-kr9WDCowvPRAZ-20" value="" style="sketch=0;outlineConnect=0;fontColor=#232F3E;gradientColor=none;fillColor=#8C4FFF;strokeColor=none;dashed=0;verticalLabelPosition=bottom;verticalAlign=top;align=center;html=1;fontSize=12;fontStyle=0;aspect=fixed;pointerEvents=1;shape=mxgraph.aws4.transit_gateway_attachment;" vertex="1" parent="1">
          <mxGeometry x="230" y="520" width="30" height="30" as="geometry" />
        </mxCell>
        <mxCell id="JKyW5L-kr9WDCowvPRAZ-21" value="" style="edgeStyle=orthogonalEdgeStyle;rounded=0;orthogonalLoop=1;jettySize=auto;html=1;shape=link;dashed=1;" edge="1" parent="1" source="JKyW5L-kr9WDCowvPRAZ-8" target="JKyW5L-kr9WDCowvPRAZ-22">
          <mxGeometry relative="1" as="geometry">
            <mxPoint x="349" y="416" as="sourcePoint" />
            <mxPoint x="349" y="370" as="targetPoint" />
          </mxGeometry>
        </mxCell>
        <mxCell id="JKyW5L-kr9WDCowvPRAZ-22" value="" style="sketch=0;outlineConnect=0;fontColor=#232F3E;gradientColor=none;fillColor=#8C4FFF;strokeColor=none;dashed=0;verticalLabelPosition=bottom;verticalAlign=top;align=center;html=1;fontSize=12;fontStyle=0;aspect=fixed;pointerEvents=1;shape=mxgraph.aws4.transit_gateway_attachment;" vertex="1" parent="1">
          <mxGeometry x="334" y="360" width="30" height="30" as="geometry" />
        </mxCell>
        <mxCell id="JKyW5L-kr9WDCowvPRAZ-23" value="" style="rounded=0;orthogonalLoop=1;jettySize=auto;html=1;exitX=1;exitY=0.5;exitDx=0;exitDy=0;exitPerimeter=0;entryX=0;entryY=0.5;entryDx=0;entryDy=0;entryPerimeter=0;shape=link;dashed=1;" edge="1" parent="1" source="JKyW5L-kr9WDCowvPRAZ-8" target="JKyW5L-kr9WDCowvPRAZ-24">
          <mxGeometry relative="1" as="geometry">
            <mxPoint x="388" y="455" as="sourcePoint" />
            <mxPoint x="470" y="455" as="targetPoint" />
          </mxGeometry>
        </mxCell>
        <mxCell id="JKyW5L-kr9WDCowvPRAZ-24" value="" style="sketch=0;outlineConnect=0;fontColor=#232F3E;gradientColor=none;fillColor=#8C4FFF;strokeColor=none;dashed=0;verticalLabelPosition=bottom;verticalAlign=top;align=center;html=1;fontSize=12;fontStyle=0;aspect=fixed;pointerEvents=1;shape=mxgraph.aws4.transit_gateway_attachment;" vertex="1" parent="1">
          <mxGeometry x="413.5" y="440" width="30" height="30" as="geometry" />
        </mxCell>
        <mxCell id="JKyW5L-kr9WDCowvPRAZ-25" value="" style="edgeStyle=orthogonalEdgeStyle;rounded=0;orthogonalLoop=1;jettySize=auto;html=1;shape=link;dashed=1;" edge="1" parent="1" source="JKyW5L-kr9WDCowvPRAZ-13" target="JKyW5L-kr9WDCowvPRAZ-26">
          <mxGeometry relative="1" as="geometry">
            <mxPoint x="548" y="455" as="sourcePoint" />
            <mxPoint x="630" y="455" as="targetPoint" />
            <mxPoint as="offset" />
          </mxGeometry>
        </mxCell>
        <mxCell id="JKyW5L-kr9WDCowvPRAZ-26" value="&lt;span style=&quot;font-size: 11px;&quot;&gt;Transit VIF&lt;/span&gt;" style="image;aspect=fixed;perimeter=ellipsePerimeter;html=1;align=center;shadow=0;dashed=0;spacingTop=3;image=img/lib/active_directory/interface.svg;" vertex="1" parent="1">
          <mxGeometry x="580" y="443.25" width="50" height="23.5" as="geometry" />
        </mxCell>
        <mxCell id="JKyW5L-kr9WDCowvPRAZ-27" value="" style="group" vertex="1" connectable="0" parent="1">
          <mxGeometry x="299.55999999999995" y="110" width="100" height="100" as="geometry" />
        </mxCell>
        <mxCell id="JKyW5L-kr9WDCowvPRAZ-28" value="巴西工厂" style="sketch=0;outlineConnect=0;gradientColor=none;html=1;whiteSpace=wrap;fontSize=12;fontStyle=0;shape=mxgraph.aws4.group;grIcon=mxgraph.aws4.group_on_premise;strokeColor=#AAB7B8;fillColor=none;verticalAlign=top;align=left;spacingLeft=30;fontColor=#AAB7B8;dashed=0;movable=1;resizable=1;rotatable=1;deletable=1;editable=1;locked=0;connectable=1;" vertex="1" parent="JKyW5L-kr9WDCowvPRAZ-27">
          <mxGeometry width="100" height="100" as="geometry" />
        </mxCell>
        <mxCell id="JKyW5L-kr9WDCowvPRAZ-29" value="" style="image;points=[];aspect=fixed;html=1;align=center;shadow=0;dashed=0;image=img/lib/allied_telesis/security/Router_VPN.svg;movable=1;resizable=1;rotatable=1;deletable=1;editable=1;locked=0;connectable=1;" vertex="1" parent="JKyW5L-kr9WDCowvPRAZ-27">
          <mxGeometry x="22.1" y="50" width="56.36" height="40" as="geometry" />
        </mxCell>
        <mxCell id="JKyW5L-kr9WDCowvPRAZ-30" value="" style="edgeStyle=orthogonalEdgeStyle;rounded=0;orthogonalLoop=1;jettySize=auto;html=1;shape=link;dashed=1;" edge="1" parent="1" source="JKyW5L-kr9WDCowvPRAZ-10" target="JKyW5L-kr9WDCowvPRAZ-31">
          <mxGeometry relative="1" as="geometry">
            <mxPoint x="349" y="292" as="sourcePoint" />
            <mxPoint x="340" y="170" as="targetPoint" />
          </mxGeometry>
        </mxCell>
        <mxCell id="JKyW5L-kr9WDCowvPRAZ-31" value="&lt;div data-docx-has-block-data=&quot;false&quot; data-lark-html-role=&quot;root&quot; data-page-id=&quot;BdY6diDIxoesObxW9hYcMjBvnOd&quot;&gt;&lt;div class=&quot;old-record-id-QdZwdZe3AokXP0xFcgzc6mxqnyd&quot;&gt;Customer Gateway&lt;/div&gt;&lt;/div&gt;&lt;span class=&quot;lark-record-clipboard&quot; data-lark-record-format=&quot;docx/text&quot; data-lark-record-data=&quot;{&amp;quot;rootId&amp;quot;:&amp;quot;BdY6diDIxoesObxW9hYcMjBvnOd&amp;quot;,&amp;quot;text&amp;quot;:{&amp;quot;initialAttributedTexts&amp;quot;:{&amp;quot;text&amp;quot;:{&amp;quot;0&amp;quot;:&amp;quot;Customer Gateway&amp;quot;},&amp;quot;attribs&amp;quot;:{&amp;quot;0&amp;quot;:&amp;quot;*0+g&amp;quot;}},&amp;quot;apool&amp;quot;:{&amp;quot;numToAttrib&amp;quot;:{&amp;quot;0&amp;quot;:[&amp;quot;author&amp;quot;,&amp;quot;7325745254509723651&amp;quot;]},&amp;quot;nextNum&amp;quot;:1}},&amp;quot;type&amp;quot;:&amp;quot;text&amp;quot;,&amp;quot;referenceRecordMap&amp;quot;:{},&amp;quot;extra&amp;quot;:{&amp;quot;channel&amp;quot;:&amp;quot;saas&amp;quot;,&amp;quot;pasteRandomId&amp;quot;:&amp;quot;a81e5416-c083-465c-a713-bf62afa7f1b7&amp;quot;,&amp;quot;mention_page_title&amp;quot;:{},&amp;quot;external_mention_url&amp;quot;:{}},&amp;quot;isKeepQuoteContainer&amp;quot;:false,&amp;quot;isFromCode&amp;quot;:false,&amp;quot;selection&amp;quot;:[{&amp;quot;id&amp;quot;:18,&amp;quot;type&amp;quot;:&amp;quot;text&amp;quot;,&amp;quot;selection&amp;quot;:{&amp;quot;start&amp;quot;:0,&amp;quot;end&amp;quot;:16},&amp;quot;recordId&amp;quot;:&amp;quot;QdZwdZe3AokXP0xFcgzc6mxqnyd&amp;quot;}],&amp;quot;payloadMap&amp;quot;:{},&amp;quot;isCut&amp;quot;:false}&quot;&gt;&lt;/span&gt;" style="outlineConnect=0;dashed=0;verticalLabelPosition=middle;verticalAlign=middle;align=right;html=1;shape=mxgraph.aws3.customer_gateway;fillColor=#F58534;gradientColor=none;labelPosition=left;" vertex="1" parent="1">
          <mxGeometry x="334.55999999999995" y="230" width="30" height="30" as="geometry" />
        </mxCell>
      </root>
    </mxGraphModel>
  </diagram>
</mxfile>
